<svg viewBox="0 0 120 120" aria-hidden="true" role="img" xmlns="http://www.w3.org/2000/svg">
  <defs>
    <radialGradient id="hp2_pet" cx="50%" cy="50%" r="68%">
      <stop offset="0%" stop-color="#ffffff"/>
      <stop offset="88%" stop-color="#f3d6dc"/>
      <stop offset="100%" stop-color="#f3d6dc"/>
    </radialGradient>
    <radialGradient id="hp2_core" cx="50%" cy="50%" r="45%">
      <stop offset="0%" stop-color="#e14857"/>
      <stop offset="60%" stop-color="#e14857" stop-opacity=".3"/>
      <stop offset="100%" stop-color="#e1485700"/>
    </radialGradient>
    <linearGradient id="hp2_leaf" x1="0%" y1="0%" x2="100%" y2="100%">
      <stop offset="0%" stop-color="#f0fbf3"/>
      <stop offset="100%" stop-color="#ccefd9"/>
    </linearGradient>
    <filter id="hp2_soft" x="-20%" y="-20%" width="140%" height="140%">
      <feGaussianBlur in="SourceAlpha" stdDeviation="0.5" result="b"/>
      <feMerge><feMergeNode in="b"/><feMergeNode in="SourceGraphic"/></feMerge>
    </filter>
    <path id="hp2_petalPath" d="M60 12 C 40 18, 36 42, 60 58 C 84 42, 80 18, 60 12 Z"/>
    <path id="hp2_leafPath" d="M60 100 C 56 96, 46 92, 38 84 C 30 76, 30 66, 42 64 C 52 62, 60 68, 66 74 C 72 80, 78 88, 80 94 C 72 98, 66 100, 60 100 Z"/>
  </defs>

  <!-- Leaves -->
  <g opacity=".85" filter="url(#hp2_soft)">
    <use href="#hp2_leafPath" fill="url(#hp2_leaf)" stroke="#b2e0c3" stroke-width="1" transform="rotate(-16 60 80) translate(0,-6)"/>
    <use href="#hp2_leafPath" fill="url(#hp2_leaf)" stroke="#b2e0c3" stroke-width="1" transform="rotate(16 60 80) translate(6,-2)"/>
  </g>

  <!-- Petals -->
  <g opacity=".98" stroke="#efadb8" stroke-width="1" filter="url(#hp2_soft)">
    <use href="#hp2_petalPath" fill="url(#hp2_pet)"/>
    <use href="#hp2_petalPath" fill="url(#hp2_pet)" transform="rotate(72 60 60)"/>
    <use href="#hp2_petalPath" fill="url(#hp2_pet)" transform="rotate(144 60 60)"/>
    <use href="#hp2_petalPath" fill="url(#hp2_pet)" transform="rotate(216 60 60)"/>
    <use href="#hp2_petalPath" fill="url(#hp2_pet)" transform="rotate(288 60 60)"/>
  </g>

  <!-- Core -->
  <circle cx="60" cy="60" r="12" fill="url(#hp2_core)"/>
  <rect x="59" y="52" width="2" height="8" rx="1" fill="#fff5b0"/>
</svg>